Coordinates
version=1
nRows=8
nColumns=40
inDegrees=yes

Units are S.I. units (second, meters, Newtons, ...)
Angles are in degrees.

endheader
time	pelvis_tilt	pelvis_list	pelvis_rotation	pelvis_tx	pelvis_ty	pelvis_tz	hip_flexion_r	hip_adduction_r	hip_rotation_r	knee_angle_r	knee_angle_r_beta	ankle_angle_r	subtalar_angle_r	mtp_angle_r	hip_flexion_l	hip_adduction_l	hip_rotation_l	knee_angle_l	knee_angle_l_beta	ankle_angle_l	subtalar_angle_l	mtp_angle_l	lumbar_extension	lumbar_bending	lumbar_rotation	arm_flex_r	arm_add_r	arm_rot_r	elbow_flex_r	pro_sup_r	wrist_flex_r	wrist_dev_r	arm_flex_l	arm_add_l	arm_rot_l	elbow_flex_l	pro_sup_l	wrist_flex_l	wrist_dev_l
     41.34750000	     -0.92173328	     -4.37819313	     -3.29717787	      1.09694114	      0.93024690	      0.47227271	     15.19263443	      1.45853710	     -8.74373139	     21.16223693	     21.16223693	      8.96188441	     -1.08649774	     -3.13223293	      4.72931632	    -10.95717190	     -9.75990185	     33.35064018	     33.35064018	     15.26742749	    -13.64959112	     -3.78673806	     -9.38357394	      7.06615036	     -0.38794155	      0.75452493	    -14.61739364	     -4.27514235	     43.59642456	     45.63697338	      0.00000000	      0.00000000	     13.97881399	    -14.49036167	    -13.70162355	     59.88653835	     47.21021006	      0.00000000	      0.00000000
     41.36085714	     -0.66132954	     -4.55581339	     -3.00464710	      1.09698113	      0.93089640	      0.47520912	     14.35874755	      1.77224482	     -9.16662995	     20.91971418	     20.91971418	      9.25489075	     -0.85099819	     -3.21335114	      6.21683515	    -11.71072560	     -8.79960546	     36.98654481	     36.98654481	     13.92211513	    -14.71218276	     -4.23612590	     -9.67918900	      7.18701218	     -0.39029957	      2.23608538	    -14.80016543	     -4.20233518	     44.75270091	     45.59880705	      0.00000000	      0.00000000	     13.20598272	    -14.08397368	    -13.50272436	     58.50501307	     47.16935340	      0.00000000	      0.00000000
     41.37421429	     -0.64863025	     -4.57132855	     -2.59585821	      1.09682133	      0.93121059	      0.47767739	     13.78561103	      1.85564415	     -9.76183092	     20.64324909	     20.64324909	      9.50440720	     -0.38692912	     -3.51688844	      8.08567693	    -12.17704134	     -7.61128929	     40.54141173	     40.54141173	     11.88617322	    -16.16450917	     -5.39198950	     -9.52748524	      7.29600873	     -0.10015378	      2.33972641	    -15.70287187	     -2.59536505	     48.76974755	     45.37725305	      0.00000000	      0.00000000	     13.79807996	    -13.35842036	    -13.19360114	     53.15016411	     47.08254867	      0.00000000	      0.00000000
     41.38757143	     -0.56358670	     -4.74795675	     -2.20171420	      1.09643593	      0.93147376	      0.48021663	     13.12050958	      2.17815657	    -10.17784695	     20.31381787	     20.31381787	      9.78374074	     -0.24517249	     -3.57123748	     10.03599825	    -12.84513916	     -6.51044277	     44.29942049	     44.29942049	     10.32397689	    -16.89110430	     -5.39379380	     -9.61807650	      7.46144263	     -0.19816089	      3.81553034	    -15.90043111	     -2.68643293	     50.06198623	     45.34403993	      0.00000000	      0.00000000	     12.84369893	    -12.98430010	    -12.89260575	     51.79336200	     47.03119881	      0.00000000	      0.00000000
     41.40092857	     -0.47997561	     -4.76454864	     -1.80096907	      1.09580705	      0.93171069	      0.48244525	     12.55358738	      2.28044922	    -10.64719001	     20.12320651	     20.12320651	     10.00648841	      0.01018592	     -3.82945628	     12.06612512	    -13.17989610	     -5.29938225	     48.01442812	     48.01442812	      9.45987960	    -17.29833953	     -3.19348218	     -9.69970780	      7.49032836	      0.28373464	      4.14263514	    -16.77884771	     -1.87968621	     53.86483359	     45.18855134	      0.00000000	      0.00000000	     13.37495131	    -12.42159069	    -11.94372999	     47.15326206	     46.89960473	      0.00000000	      0.00000000
     41.41428571	     -0.43324834	     -4.77903246	     -1.39201925	      1.09499688	      0.93187363	      0.48451394	     12.03511136	      2.39901600	    -11.03151149	     19.91361024	     19.91361024	     10.24491734	      0.14545064	     -3.96574684	     14.12908207	    -13.45229754	     -4.16768084	     51.48531442	     51.48531442	      8.77421439	    -17.47277891	     -0.63102763	     -9.77141669	      7.50049649	      0.49106430	      5.08800098	    -17.23848794	     -2.01792107	     56.49152270	     45.12803278	      0.00000000	      0.00000000	     13.20202525	    -11.98965176	    -11.04514301	     44.10134879	     46.78037401	      0.00000000	      0.00000000
     41.42764286	     -0.36171360	     -4.87049271	     -0.96106747	      1.09402080	      0.93200823	      0.48648789	     11.50163394	      2.61125768	    -11.38006867	     19.69953004	     19.69953004	     10.48383361	      0.18094424	     -3.99682873	     16.03534953	    -13.81120176	     -3.20339353	     54.40568417	     54.40568417	      7.42399143	    -17.79967682	     -0.18805277	     -9.92231605	      7.55293330	      0.46093022	      6.77417805	    -17.47318650	     -2.26372169	     57.66289804	     45.10789591	      0.00000000	      0.00000000	     12.18947686	    -11.57483468	    -10.79333205	     42.96390131	     46.73325614	      0.00000000	      0.00000000
     41.44100000	     -0.35671803	     -4.78431565	     -0.52377177	      1.09287431	      0.93212044	      0.48813135	     11.10659134	      2.58630908	    -11.78434760	     19.58013350	     19.58013350	     10.74294811	      0.34144285	     -4.13858635	     18.05480305	    -13.78048138	     -2.16496464	     57.16558238	     57.16558238	      7.74014873	    -17.64571904	      4.18912550	     -9.94675129	      7.45756937	      0.67822370	      7.49172333	    -18.20759177	     -1.75263606	     61.12683503	     44.99612435	      0.00000000	      0.00000000	     12.43381804	    -11.17663943	     -9.75202343	     38.55494631	     46.59377295	      0.00000000	      0.00000000
